<?xml version="1.0" encoding="UTF-8"?>
<svg width="500px" height="500px" viewBox="0 0 500 500" version="1.1" xmlns="http://www.w3.org/2000/svg" xmlns:xlink="http://www.w3.org/1999/xlink">
    <!-- Generator: Sketch 48.2 (47327) - http://www.bohemiancoding.com/sketch -->
    <title>Slice</title>
    <desc>Created with Sketch.</desc>
    <defs>
        <radialGradient cx="50%" cy="0%" fx="50%" fy="0%" r="98.6726722%" gradientTransform="translate(0.500000,0.000000),scale(0.946222,1.000000),rotate(90.000000),translate(-0.500000,-0.000000)" id="radialGradient-1">
            <stop stop-color="#3023AE" offset="0%"></stop>
            <stop stop-color="#6DD7B2" offset="100%"></stop>
        </radialGradient>
    </defs>
    <g id="Page-3" stroke="none" stroke-width="1" fill="none" fill-rule="evenodd">
        <path d="M84.387,439.498 L85.575,437.254 C82.869,435.604 79.569,434.548 75.741,434.548 C69.669,434.548 64.455,437.188 64.455,443.194 C64.455,455.008 84.783,450.586 84.519,460.288 C84.321,464.644 80.163,466.558 75.345,466.558 C70.989,466.558 66.831,464.974 63.861,462.202 L62.607,464.314 C65.775,467.35 70.395,469.066 75.213,469.066 C81.417,469.066 87.159,466.228 87.159,459.826 C87.159,447.682 67.095,452.236 67.095,442.996 C67.095,438.904 70.857,437.056 75.675,437.056 C78.975,437.056 82.011,437.98 84.387,439.498 Z M122.271,434.614 L122.271,451.444 C122.271,460.42 117.387,466.096 109.071,466.294 C102.141,466.294 98.049,462.136 98.049,455.074 L98.049,434.614 L95.343,434.614 L95.343,455.602 C95.343,464.05 100.161,469.066 108.477,469.066 C115.275,469 120.093,465.766 122.271,459.826 L122.271,469 L124.977,469 L124.977,434.614 L122.271,434.614 Z M156.459,434.548 C149.727,434.548 144.447,438.046 141.873,443.656 L141.873,434.614 L139.101,434.614 L139.101,481.804 L141.873,481.804 L141.873,460.024 C144.447,465.568 149.727,469.066 156.459,469.066 C166.161,469.066 173.025,461.872 173.025,451.84 C173.025,441.742 166.095,434.548 156.459,434.548 Z M156.063,466.492 C147.813,466.492 141.873,460.354 141.873,451.84 C141.873,443.326 147.813,437.122 156.063,437.122 C164.379,437.122 170.319,443.326 170.319,451.84 C170.319,460.354 164.379,466.492 156.063,466.492 Z M196.125,434.548 C186.423,434.548 179.361,441.742 179.361,451.84 C179.361,461.938 186.423,469.066 196.125,469.066 C201.603,469.066 206.289,467.02 209.457,463.588 L207.873,461.806 C205.101,464.842 200.943,466.558 196.257,466.558 C188.271,466.558 182.463,460.948 182.067,452.566 L212.097,452.566 C212.295,441.94 206.223,434.548 196.125,434.548 Z M182.133,450.124 C182.793,442.336 188.403,437.056 196.125,437.056 C203.979,437.056 209.061,442.336 209.589,450.124 L182.133,450.124 Z M224.703,443.26 L224.703,434.614 L221.931,434.614 L221.931,469 L224.703,469 L224.703,450.388 C225.297,442.402 229.917,437.386 237.507,437.386 L237.507,434.548 C231.369,434.68 226.881,437.716 224.703,443.26 Z M290.307,432.832 C284.499,432.832 280.143,435.538 277.833,440.818 C276.051,435.802 271.761,432.832 265.953,432.832 C260.805,432.832 256.779,435.01 254.337,439.168 L254.337,433.294 L242.655,433.294 L242.655,469 L254.337,469 L254.337,451.378 C254.337,446.692 256.977,443.392 261.135,443.326 C264.765,443.326 267.009,445.768 267.009,449.86 L267.009,469 L278.757,469 L278.757,451.378 C278.757,446.692 281.331,443.392 285.489,443.326 C289.119,443.326 291.363,445.768 291.363,449.86 L291.363,469 L303.111,469 L303.111,446.494 C303.111,438.112 298.029,432.832 290.307,432.832 Z M327.663,432.898 C315.915,432.898 308.193,440.158 308.193,451.114 C308.193,462.136 315.915,469.396 327.663,469.396 C339.411,469.396 347.199,462.136 347.199,451.114 C347.199,440.158 339.411,432.898 327.663,432.898 Z M327.663,442.402 C332.283,442.402 335.385,445.966 335.385,451.312 C335.385,456.592 332.283,460.156 327.663,460.156 C323.109,460.156 320.007,456.592 320.007,451.312 C320.007,445.966 323.109,442.402 327.663,442.402 Z M377.493,420.028 L377.493,437.98 C374.985,434.746 371.289,432.898 366.669,432.898 C356.835,432.898 350.301,440.092 350.301,450.982 C350.301,462.07 356.901,469.462 366.933,469.462 C371.421,469.462 375.051,467.68 377.493,464.38 L377.493,469 L389.241,469 L389.241,420.028 L377.493,420.028 Z M369.837,460.222 C365.217,460.222 362.115,456.592 362.115,451.312 C362.115,446.032 365.217,442.402 369.837,442.402 C374.391,442.402 377.493,445.966 377.493,451.312 C377.493,456.592 374.391,460.222 369.837,460.222 Z M414.255,432.898 C403.101,432.898 395.643,440.224 395.643,451.312 C395.643,462.202 402.837,469.396 414.519,469.396 C421.119,469.396 426.465,467.152 430.095,463.06 L423.957,456.922 C421.581,459.298 418.611,460.552 415.575,460.552 C411.549,460.552 408.579,458.308 407.457,454.282 L432.273,454.282 C433.065,441.28 426.729,432.898 414.255,432.898 Z M407.193,448.012 C407.985,443.92 410.493,441.148 414.321,441.148 C418.281,441.148 420.921,443.92 420.921,448.012 L407.193,448.012 Z M438.675,420.028 L438.675,469 L450.423,469 L450.423,420.028 L438.675,420.028 Z" id="supermodel" fill="#000000"></path>
        <path d="M373.637408,204.012967 C358.503571,176.758861 281.439781,40.7742894 250.433011,40 C245.82247,40 235.017614,40 194.974535,98.3048698 C140.224357,178.02588 47.3096321,346.605394 59.0075607,377.022648 C68.0658665,400.576883 173.109659,404.091981 234.912029,404.091981 L234.916428,404.091981 C242.712114,404.091981 425.013268,403.784025 440.714625,377.088639 C454.203098,354.167914 398.300285,248.415823 373.637408,204.012967 L373.637408,204.012967 Z M81.7303143,364.651616 L116.419358,321.704952 L144.100203,326.808223 L134.038841,355.003794 L81.7303143,364.651616 L81.7303143,364.651616 Z M128.909174,369.372141 L123.093205,385.671813 C103.850354,383.419334 90.397076,380.700523 81.9942765,378.025705 L128.909174,369.372141 L128.909174,369.372141 Z M73.8422413,353.411222 C76.587449,344.036161 81.2155878,331.634333 87.7926481,316.425706 L101.650668,318.981741 L73.8422413,353.411222 L73.8422413,353.411222 Z M125.85601,310.020221 L169.282205,256.259902 L148.60076,314.212822 L125.85601,310.020221 L125.85601,310.020221 Z M157.245525,329.236676 L215.5152,339.975541 L149.040697,352.23659 L157.245525,329.236676 L157.245525,329.236676 Z M161.741683,316.641275 L194.380619,225.178343 L250.551794,155.637478 L305.825497,224.065302 L339.485088,317.116407 L251.915599,333.2665 L161.741683,316.641275 L161.741683,316.641275 Z M249.922684,69.5373799 L266.380733,115.03128 L250.547395,134.63048 L234.001359,114.142607 L249.922684,69.5373799 L249.922684,69.5373799 Z M271.629183,129.540407 L292.064263,186.023937 L259.038182,145.136179 L271.629183,129.540407 L271.629183,129.540407 Z M242.069806,145.131779 L207.811901,187.54612 L228.805701,128.708926 L242.069806,145.131779 L242.069806,145.131779 Z M331.240666,255.529606 L375.608327,310.460158 L352.643608,314.696753 L331.240666,255.529606 L331.240666,255.529606 Z M344.038437,329.707408 L352.010098,351.726263 L288.315999,339.979941 L344.038437,329.707408 L344.038437,329.707408 Z M357.192558,327.278955 L385.044979,322.144889 L418.898142,364.057701 L367.038351,354.493467 L357.192558,327.278955 L357.192558,327.278955 Z M399.813669,319.421678 L414.771531,316.663272 C421.43218,332.742975 425.756762,345.347174 428.048834,354.379083 L399.813669,319.421678 L399.813669,319.421678 Z M414.833123,376.736689 C405.8892,379.063957 393.175017,381.307636 377.460462,383.296152 L372.242808,368.883811 L414.833123,376.736689 L414.833123,376.736689 Z M409.448292,304.21745 L390.372617,307.736947 L317.479432,217.488242 L281.320998,117.538922 L294.514713,101.208455 C313.335224,127.727866 336.409927,164.313039 361.138794,208.693898 C382.598928,247.227993 398.410269,279.136634 409.448292,304.21745 L409.448292,304.21745 Z M286.48586,90.1440357 L276.076947,103.029795 L260.265606,59.3264388 C266.88666,65.393172 275.821784,75.8372798 286.48586,90.1440357 L286.48586,90.1440357 Z M238.11917,63.3474643 L224.287547,102.114725 L215.827555,91.6442214 C224.586704,79.4975568 232.158022,69.9025277 238.11917,63.3474643 L238.11917,63.3474643 Z M207.913086,102.845021 L219.08749,116.681044 L182.704688,218.632078 L111.08732,307.30141 L93.3138593,304.023878 C104.78742,278.872671 120.699947,247.566744 141.192219,211.029964 C165.626328,167.476187 188.951795,130.21791 207.913086,102.845021 L207.913086,102.845021 Z M234.912029,390.898266 C193.804302,390.898266 161.398532,389.362885 136.608074,387.075212 L143.91103,366.613735 L251.919999,346.697781 L357.214555,366.112207 L363.998386,384.862328 C330.061634,388.456615 285.262835,390.898266 234.912029,390.898266 L234.912029,390.898266 Z" id="Shape" fill="url(#radialGradient-1)"></path>
    </g>
</svg>